<svg width="55" height="54" viewBox="0 0 55 54" xmlns="http://www.w3.org/2000/svg">
<path d="M27.5 54C20.3392 54 13.4716 51.1554 8.40811 46.0919C3.34463 41.0284 0.499998 34.1608 0.499997 27C0.499997 19.8392 3.34463 12.9716 8.40811 7.90812C13.4716 2.84464 20.3392 1.49322e-06 27.5 1.18021e-06C34.6608 8.67197e-07 41.5284 2.84464 46.5919 7.90812C51.6554 12.9716 54.5 19.8392 54.5 27C54.5 34.1608 51.6554 41.0284 46.5919 46.0919C41.5284 51.1554 34.6608 54 27.5 54ZM39.3125 28.6875C39.7601 28.6875 40.1893 28.5097 40.5057 28.1932C40.8222 27.8768 41 27.4476 41 27C41 26.5524 40.8222 26.1232 40.5057 25.8068C40.1893 25.4903 39.7601 25.3125 39.3125 25.3125L19.7611 25.3125L27.0072 18.0698C27.3241 17.7529 27.5021 17.3231 27.5021 16.875C27.5021 16.4269 27.3241 15.9971 27.0072 15.6803C26.6904 15.3634 26.2606 15.1854 25.8125 15.1854C25.3644 15.1854 24.9346 15.3634 24.6177 15.6803L14.4927 25.8053C14.3356 25.962 14.2109 26.1482 14.1258 26.3532C14.0408 26.5583 13.997 26.778 13.997 27C13.997 27.222 14.0408 27.4417 14.1258 27.6468C14.2109 27.8518 14.3356 28.038 14.4927 28.1948L24.6177 38.3198C24.9346 38.6366 25.3644 38.8146 25.8125 38.8146C26.2606 38.8146 26.6904 38.6366 27.0072 38.3198C27.3241 38.0029 27.5021 37.5731 27.5021 37.125C27.5021 36.6769 27.3241 36.2471 27.0072 35.9302L19.7611 28.6875L39.3125 28.6875Z"/>
</svg>
